<svg xmlns="http://www.w3.org/2000/svg" viewBox="0 0 404.74 447.72"><defs><style>.cls-1{fill:#fff;}.cls-2{fill:#ffec00;}.cls-3{fill:#040404;}.cls-4{fill:#0c0c0c;}.cls-5{fill:#1a1a1a;}.cls-6{fill:#090909;}.cls-7{fill:#080808;}.cls-8{fill:#060606;}.cls-9{fill:#6b6b6b;}</style></defs><g id="Layer_2" data-name="Layer 2"><g id="Layer_1-2" data-name="Layer 1"><path class="cls-1" d="M404.66,211.26q0,6,.08,12a89.17,89.17,0,0,1-9.2,29.95c-3.94,9.41-9.54,17.44-18.77,22.45-4-1-6.26-4.27-8.8-7.06-14.53-16-29.69-31.42-44.43-47.23-20.41-21.9-41.28-43.34-61.51-65.4-2.12-2.31-4.08-4.87-7-6.28-4.17-5.74-7.12-12.34-12.2-17.45-1.67-1.7-2.4-4.5-5.42-4.66-6.88-4.13-12.57-9.83-19.11-14.43A68.8,68.8,0,0,0,208,107c-3.16-1.5-5.45-1-6.73,2.51-.53,1.4-1.07,2.8-1.71,4.15-2.3,4.83-10.73,6.83-15.08,3.62-1.86-1.38-2-3.33-2-5.36,0-3.64,1.62-6.75,3.24-9.85.38-.73,1-1.57.12-2.23a2.13,2.13,0,0,0-2.36.15c-1.54.87-2.26,2.39-3,3.88-1.26,2.53-2,5.31-3.5,7.73-2.42,3.85-6.57,5-10.87,3.14-3.81-1.68-4.88-4.33-3.81-9.08.69-3.09,2.35-5.84,3.32-9.27-2.64-.15-3.52,1.66-4.47,3.27a75.68,75.68,0,0,0-4.06,9.11c-2,4.87-5.27,6.52-10.35,5.57s-6.79-3.52-5.85-8.54c.55-2.91,1.87-5.6,3.09-8.86-3,.77-3.82,2.72-4.61,4.68-1,2.48-1.4,5.14-2.24,7.66a9.07,9.07,0,0,1-13.3,5.29c-3.78-2-3.5-5.24-2.37-8.8-1.91,2.21-2.16,5-3.11,7.43-2.21,5.74-6.35,6.82-11.19,2.91-.92.26-1.24,1.08-1.57,1.81-.61,1.31-2,2.73-.88,4.09.91,1.08,2.52.27,3.8,0a104.42,104.42,0,0,1,18.3-2.28c4.65-.2,6.67,2.45,5.59,7-1.31,5.47-5,8.1-10.31,8.58-5.63.51-11.27.92-16.86,1.85-4,.67-6.07,3-6.91,6.81-.62,2.79.22,3.63,3,3.25,5.43-.74,10.76-2.26,16.3-2.22,6,0,8,1.2,8.22,4.94a9.18,9.18,0,0,1-7.67,9.59c-5.92.86-11.92,1.18-17.82,2.25-2.14.38-4.39.7-5.95,2.32-1.9,2-3.51,4.7-2.38,7.17,1,2.12,3.59.33,5.42,0,4.43-.75,8.9-1.23,13.35-1.84,3.41-.47,6.91-.89,8.29,3.35,1.12,3.44-1.31,8.58-4.65,10.2a18.72,18.72,0,0,1-8.26,1.63c-4.52,0-8.93,1-13.39,1.44a8.42,8.42,0,0,0-4.67,1.63c-2.21,1.85-3.42,4.62-2.62,7.12.86,2.65,3.43.57,5.18.4,4.47-.42,8.91-1.17,13.35-1.83,5.67-.84,8.15.26,8.82,3.87.88,4.69-2.48,9.67-7.27,10.16q-9.69,1-19.27,2.71c-3.08.54-5.78,1.55-6.55,5.16-.67,3.11.16,4.45,3.53,3.83,5.39-1,10.75-2.42,16.3-2.14,2.82.14,6.38-.83,7.2,3.46.76,3.93-2.16,8.81-6,9.76a50.12,50.12,0,0,1-10.37,1.44c-14.59.52-15.86,1.7-18.14,15.84a122.06,122.06,0,0,0-1.18,14.41,19.69,19.69,0,0,0,6.33,15.65c5.2,5.07,9.89,10.81,17.4,12.69-1,1.45.49,2.12,1,3.09,5,6,11.76,9.09,18.75,11.81,7.51,2.92,15.48,3.83,23.42,4.55,14.73,1.35,29.47,1.84,44.25.26A76.42,76.42,0,0,0,208,302.52c1.62-.79,3.09-2,5.05-1.93,1.79.39,2.58,1.75,3.21,3.28.61,3.86-2.09,6.42-3.72,9.41-.85,1.19-1.64,2.42-2.47,3.63a38.47,38.47,0,0,1-14.5,10.87c-2,.85-4,1.6-6.24,1-21-.3-42-.26-62.94,0a6.8,6.8,0,0,1-4.41.07c-11.53-4.4-21.57-10.44-25.35-23.31-.54-1.83-.69-3.94-3.32-5.22,1.46,9.54,5.26,17.26,12.59,23.06,5.69,4.5,12.39,7,19.11,9.45.44.3.88.59,1.35.85,3.66.36,7.32.08,11,.1,9.61.07,9.88.29,9.88,9.69q0,29.15,0,58.3c0,2.33,0,4.65.11,7a4.64,4.64,0,0,1,.08,1.66,3.93,3.93,0,0,1-2.26,2.45c-9.07,5-17.56,11-27.1,15.18-4,2.11-8.23,3.37-12.39,4.93-2,.53-4.09.68-6,1.54-5.57,1.81-11.46,1.58-17.14,2.69a38.16,38.16,0,0,1-11.14,0c-3.94-1.09-8.1-.76-12.06-1.75a89.91,89.91,0,0,1-30.19-12.27c-1.16-.84-2.32-1.69-3.52-2.48-4.4-4.11-8.87-8.16-12.63-12.9-1.27-2-2.6-3.89-4-5.78a63.38,63.38,0,0,1-7.37-17C-.38,380.44.46,375.6,0,370.91Q0,220.73,0,70.54c0-4.3.63-8.6,1-12.9A32.12,32.12,0,0,1,3.58,44.27C11.35,25.92,24.49,13,42.82,5.26c4.93-2,9.91-3.76,15.33-3.67a114,114,0,0,1,42.55.9c5.81.7,11.68,1.2,16.14,5.7l29.59,16.42c2.58.32,4.67,1.8,6.93,2.88,2.83,2,6,3.34,8.91,5.17,4.94,2.94,10,5.59,14.95,8.59,1.56,1,3.24,1.68,4.83,2.58,3,2.15,6.43,3.59,9.52,5.59,10.9,5.89,21.24,12.77,32.35,18.27,9,6.12,18.78,10.94,28.11,16.51,2.67,1.35,5,3.21,7.79,4.42,2.21,1.17,4.19,2.76,6.5,3.77,5.45,3,10.74,6.32,16.28,9.19,1,.6,1.87,1.31,2.88,1.86,4.43,2,8.09,5.28,12.54,7.23,9.72,5.53,19.3,11.31,29.13,16.64,10.77,6.46,21.68,12.69,32.53,19,1.11.8,2.27,1.54,3.42,2.29a71.78,71.78,0,0,1,9.08,6,116.8,116.8,0,0,1,18.78,19c1.09,1.41,2.41,2.78,2.22,4.81C399,188.66,403.18,199.49,404.66,211.26Z"/><path class="cls-2" d="M255.54,149.57c3.94-.26,5.34,3.3,7.11,5.49,7,8.66,15.27,16.11,22.78,24.26,20.22,21.94,41.09,43.28,61.61,64.93,7.29,7.69,14.31,15.63,21.53,23.38,2.59,2.77,5.44,5.31,8.17,7.95-.17,2.66-2.22,4-4.07,5.25A149,149,0,0,1,356.88,291c-4.39,2.6-8.95,4.91-13.11,7.9-5.61,2.9-10.93,6.31-16.47,9.33-2.89,1.39-5.51,3.23-8.28,4.84-2.95,1.83-6.12,3.29-9,5.27-9,5.27-18.16,10.34-27.16,15.66-10,5.48-19.79,11.21-29.6,17-4,2.26-8.07,4.54-12,7-1.36.89-2.79,1.68-4.23,2.44-7.63,4.37-15.29,8.7-22.91,13.1-2.41,1.39-5.1,2.55-6.34,5.37-2.81,4.95-4.84,10.26-7.21,15.41-1.38,2.44-2.59,5-3.79,7.49a79.44,79.44,0,0,0-4.39,9.45,39.89,39.89,0,0,0-2.68,5.69c-3.5,6.28-5.76,13.21-10.1,19-2.74,3.53-3.94,7.86-6,11.72a.39.39,0,0,1-.37.1,5.93,5.93,0,0,1-.62-.61c-2.52-4.45-1-9.27-1.3-13.93-.1-5-.18-10,0-15-.13-5-.17-10,0-15-.1-5-.18-10,0-15-.13-5-.17-10,0-15-.1-5-.18-10,0-15-.13-5-.16-9.91,0-14.87,0-.66,0,.18,0-.49-.13-9.69.06-9.88,9.74-10.1a12.61,12.61,0,0,0,3.41-.32c9.56-1,17.85-4.64,24.46-11.78,2.42-2.35,5-4.57,6.53-7.7a36.43,36.43,0,0,0,4.93-20c-.53-29.51,0-59-.17-88.55,0-3.36-.73-7.12,2.86-9.47a2.06,2.06,0,0,1,2.32,1.06c1,2,.78,4.23.78,6.38,0,29.63,0,59.25,0,88.88,0,19.87-8.65,34.06-26.91,42.16,6.6-.15,9.17-.83,14.36-4.36,14.76-10,22.92-23.46,22.68-41.87-.35-27.46-.1-54.93-.07-82.39,0-2.48-.29-5,.63-7.41.45-.67.94-1.56,1.87-.86a3.79,3.79,0,0,1,1.24,3.14c.15,11.95.48,23.9-.09,33.35,1.85-9.17,4.9-20.64,8.17-32.05.42-2.43-.07-5,.84-7.35,2.88-5.39,3.37-11.52,5.3-17.21,1.06-8,3.19-16,.7-24.09A2.94,2.94,0,0,1,255.54,149.57Z"/><path class="cls-3" d="M213.64,301.08c1.25-1.61.82-3.5.83-5.29,0-17.46,0-34.92,0-52.69-2.07.84-2,2.91-2.51,4.34-3,7.91-5.52,16-8.72,23.83-3.5,8.52-11.14,12.89-18.79,16.93-16.2,8.56-33.9,8.81-51.53,8.54-12.76-.2-25.58-.65-38.12-3.63-.74-.82-2.17-1.76.33-2.08,14.37,1.62,28.77,3,43.24,3.2a110.43,110.43,0,0,0,36.8-5.18c15.41-5.06,26-14.68,30.47-30.66,2.11-7.48,5-14.74,7.51-22.11a24.47,24.47,0,0,0,1.35-8.29c-.07-6.83,0-13.65.06-20.47a14,14,0,0,1,.15-7.25c.51-2.11,1.66-3,3-.37a20.75,20.75,0,0,1,.58,6.93c-.3,30.09.31,60.18-.19,90.27,0,2.66.2,5.41-2.54,7.09Z"/><path class="cls-4" d="M243.56,131.83c-1.56-.29-1.31.81-1.52,1.78-2.56,11.69-5.4,23.3-8.85,34.76,1,7.85-2.07,14.85-4.58,22-2,2.46-2.07,2.47-3,.79,3.11-12.64,6.25-25.28,9.34-37.93,1.71-7.05,3.17-14.17,5.08-21.16a4,4,0,0,0-1.39-4.58c1-1.43,1.92-.82,2.61.26C242.09,129,242.8,130.45,243.56,131.83Z"/><path d="M190.69,328a25.08,25.08,0,0,1-7.37.79q-26.08,0-52.16,0c-2.14,0-4.32.22-6.36-.69,1-1.22,2.41-.92,3.71-.92q29.2,0,58.43,0C188.24,327.2,189.64,326.89,190.69,328Z"/><path d="M147.57,334.84c-1.06,1.68-.53,3.55-.53,5.32q-.06,32.26,0,64.53c0,1.79-.26,3.59-.4,5.39-1.44-1.57-.8-3.49-.81-5.25q-.06-31.65,0-63.3c0-6.34,0-6.31-6.56-6.36-4.78,0-9.56-.15-14.33-.25-.05,0-.15-.28-.13-.41a1.42,1.42,0,0,1,.24-.43c7.53-.29,15.08-1.28,22.57.51Z"/><path class="cls-5" d="M237.49,197.66q-5.2-7.74-12.59-1l-1.23-1.41c-3.33-.92-4.3-.3-6.8,4.31-2.56-.26-1,1.67-1.09,2.41-.16,1.91-.11,3.82-1.21,5.52l-.82-.1a9.06,9.06,0,0,1,0-10.32c2.78-4.29,7.31-5.12,11.83-6,1.47,1.24,1.41-1.24,2.46-1,3.3-4.32,5.67-4.8,9.78-1.59a54.71,54.71,0,0,1,11.7,12.54l-10,37.19-.92-.11q0-18.24,0-36.49c0-1.42-.21-2.85-.35-4.28a.85.85,0,0,0-.43,0A1.36,1.36,0,0,0,237.49,197.66Z"/><path class="cls-5" d="M233.26,168.34c1.27.64,1.16-.58,1.55-1.14,2.68-3.89,5.65-4.39,9.46-1.48,3.56,2.71,6.19,6.26,8.75,9.88.59.83.88,2.33,2.47,1.29-1.25,4.6-2.57,9.18-3.71,13.8-.35,1.41-.64,2.56-2.32,2.66-2.28.11-3-1.8-4.07-3.2a79.26,79.26,0,0,0-7.53-9.28C234.3,177.36,232.45,173.38,233.26,168.34Z"/><path class="cls-5" d="M218.73,157.18c-11.41-6.25-22.6-13-35.43-16.13-13.06-3.23-26.36-4.78-39.69-6.19-2.59-.27-6.75.58-6.88-3.17-.13-3.91-.66-8.71,4.08-11.16,3.61,1.29,7.64-1,11.14,1.3-.47,1.42-1.37.85-1.69.85a61.11,61.11,0,0,1,14.68,1.25c18.77,3.16,36.8,8.33,52.63,19.42,4.5,3.16,7.2,7.28,5.94,13.12C222.27,159.06,220.06,155.18,218.73,157.18Z"/><path class="cls-5" d="M213.73,183.24c-8.42-4.18-16.25-9.46-25-13-15.9-6.34-32.69-8.14-49.49-9.91-1.48-.16-3-.08-4.46-.26-4.17-.5-5.9-2.67-4.54-6.85.74-2.29.71-4.88,2.62-6.71,1,.22,2-.1,2.91.24,3.54.13,7,.81,10.54,1.16a87.16,87.16,0,0,1,15.27,1.94c15.27,2.69,29.94,7.23,43.53,14.78,4.53,2.52,9.75,4.61,11.18,10.55C215.61,178,217.06,181.35,213.73,183.24Z"/><path class="cls-5" d="M200.74,231.16c-8.61-4.22-16.7-9.45-25.69-12.92-14.24-5.5-29.24-7.13-44.22-8.9-2.15-.26-4.29-.52-6.44-.73-7.94-.76-8.35-1.43-5.82-9.68,1.83-.18,1.17-4.09,4.05-2.7,3.62,1.41,7.39.44,11.08.72a15.88,15.88,0,0,1,3.15.25c13.72,2.06,27.42,4.22,40.54,9a98.75,98.75,0,0,1,20.52,9.84c4.83,3.17,7.9,6.95,7.3,13C204.69,231.85,202.38,230.79,200.74,231.16Z"/><path class="cls-5" d="M193.73,254.2c-10.48-4.84-20.36-10.94-31.52-14.35-13.41-4.11-27.18-6.06-41.05-7.57-1.66-.18-3.33-.14-5-.38-5.76-.82-6.48-2.12-4.62-8,1.92-1.45,1-5.8,5.11-5,2.93,2.11,6.14.84,9.26.77a16.64,16.64,0,0,1,3.72.63,239.43,239.43,0,0,1,28.24,5.48c10.59,3.26,20.89,7.17,30.47,12.86,7,4.18,9.16,7.83,8,14.18C195.86,254,194.63,253.78,193.73,254.2Z"/><path class="cls-5" d="M205.74,206.14c-20.78-13.12-43.8-18.88-68-20.8a38.33,38.33,0,0,1-4.32-.85c-1.1-1.66-2.87-.66-4.28-1-2.76-.59-5.25-1-5.13-4.63.15-4.52,2-6.82,5.9-7.4,6.06,1.82,12.46,1,18.58,2.4a140,140,0,0,1,52.88,17.37c5.33,3.06,9.87,6.85,9.21,14C209.44,208,207.24,205.25,205.74,206.14Z"/><path class="cls-5" d="M150.46,286.06c-1.7.25-2.19.33-2.68.39-12.2,1.52-15.56-.46-20-12.08-2.9-7.66-2.67-15.68-2-23.63.35-3.88,3.4-4.93,7-4.6,3.41.31,5.65,1.83,5.8,5.51a19.84,19.84,0,0,1-.15,3C137.23,266.78,141.33,277,150.46,286.06Z"/><path class="cls-5" d="M130.82,287.4c-3.95-.31-7.9-.67-11.86-.92a4.53,4.53,0,0,1-3.32-1.77c-8.85-9.92-10.4-21.88-9.58-34.42.23-3.43,2.67-5.29,6.19-5.08s6.45,1.78,6.11,5.71C117.16,264.79,121.28,276.66,130.82,287.4Z"/><path class="cls-5" d="M114.24,286.34c-2.37-.4-3.68-.87-4.95-.78-11.44.72-16-6.72-18.77-16A65.3,65.3,0,0,1,87.61,250c0-3.65,1.71-5.63,5.33-5.74s6.12,1.25,6.81,5.05a7.71,7.71,0,0,1,0,2c-1.22,13,3.73,23.58,12.53,32.72C112.77,284.48,113.14,285,114.24,286.34Z"/><path class="cls-5" d="M170.89,281.52c-12.84,4.73-19.17,1.41-22.83-11.41A60.65,60.65,0,0,1,146,255.38c-.13-4.31,2.06-6.53,6.11-6.92,4.4-.43,7,1.77,7,6.28C159.22,265.09,161.51,274.43,170.89,281.52Z"/><path class="cls-5" d="M93.39,282.91C79.66,281.61,75.7,277.77,74,263.7c-.5-4.12-.65-8.29-.83-12.44-.16-3.69,1.3-6.28,5.4-6.09,3.75.17,6,1.8,6.07,6.17C84.68,268.13,84.77,268.13,93.39,282.91Z"/><path class="cls-6" d="M129.91,172.37c-4.49-.51-4.44,3.1-5,5.83-.64,3,1.3,3.88,4,4.38,1.78.34,3.75.22,5.27.89s-.52.59-.7,1c-.83,0-1.67,0-2.48-.09-2.8-.33-6.35.83-7.64-2.88-1.23-3.52.67-6.66,2.08-9.77.77-1.7,2.36-1.72,3.82-1.67,28.71,1,56.3,6,80.48,22.89,1.58,1.1,3.5,2,4.1,4.13l0,10.32c-3.41,4.24-5.42-.36-8-1.28,1.37-1.84,2.64-1.25,3.88.17,2.19-5,.6-9.38-4.68-12.92a100.67,100.67,0,0,0-19.15-9.55,158.13,158.13,0,0,0-36.59-9.35C142.83,173.16,136.29,173.55,129.91,172.37Z"/><path class="cls-7" d="M136.65,198.31l-3.25-.17c-3.51-2.15-7.69.38-11.22-1.62-2-.33-1.2,3.41-3.61,2.41.11-3.41,2.18-4.6,5.24-4.54,26.87.49,52.64,5.5,76.17,19.16,7.25,4.21,9.43,8.77,7.93,14.42-1.12,4.25-2.87,5-7.17,3.19.9-1.59,3.1-.17,4-1.74,1.2-6.85-2.68-10.72-8-13.88-11.85-7.07-24.77-11.24-38.12-14.16C151.41,199.8,144.14,198.22,136.65,198.31Z"/><path class="cls-7" d="M128.68,221.29l-3-1c-2.94-.39-6.06.83-8.84-1-3.37.07-3.21,3.22-4.49,5.12,0,0-.32-.06-.45-.14a2.35,2.35,0,0,1-.33-.37c-.19-4.26,1.67-6.47,6.1-6.3,27.07,1,53,6.17,76.41,20.67,4.23,2.62,8.39,5.58,7.86,11.65-.48,5.54-3.24,7-8.21,4.27.47-.88,1.34-1,2.19-1,3.26-3.17,2.49-6-.49-8.92-5.19-5.06-11.5-8.24-18.08-10.93-6.24-2.55-12.4-5.41-19.06-6.84C148.51,224.23,138.81,221.48,128.68,221.29Z"/><path class="cls-8" d="M213.73,183.24c1.86-2.35,0-5.51,1.72-7.91,1.41.63,1.13,2.24,2.18,4,.65-5.32-1.93-8.09-5.27-10.36-11.11-7.57-23.58-12.07-36.41-15.61a110.19,110.19,0,0,0-13.65-2.84,85.82,85.82,0,0,0-13.62-1.88c-4.5-.79-9.09-.62-13.6-1.18l-2.25-.94c1.69-1.38,3.76-1.32,5.72-1.26,26,.77,51,6,73.78,19.21,5.43,3.14,10.22,7.08,9.42,14.48C221.17,184.33,218.79,185.61,213.73,183.24Z"/><path class="cls-7" d="M151.78,122.22c-3.39-2.3-7.57.54-11-1.69,17.53-1.39,34.42,2.15,51.07,7a101.9,101.9,0,0,1,29.3,13.29c3.5,2.38,6.48,5.26,7.1,9.79.43,3.1.18,6.11-2.45,8.15-2.78,2.16-4.88-.29-7.1-1.53,1.41-2.31,2.81-1.78,4.2,0,2.58-6.57,1.43-9.92-5.52-14.36A118.16,118.16,0,0,0,179,127.3c-4.51-1-9-2.09-13.6-2.72C160.9,123.41,156.15,123.89,151.78,122.22Z"/><path class="cls-9" d="M116.84,219.3c3,.23,6-.59,8.85,1-2.59,1.5-5.41.89-8.15.9C115.84,221.19,116.24,220.24,116.84,219.3Z"/></g></g></svg>